<?xml version="1.0" encoding="UTF-8"?><svg version="1.1" width="22px" height="16px" viewBox="0 0 22.0 16.0" xmlns="http://www.w3.org/2000/svg" xmlns:xlink="http://www.w3.org/1999/xlink"><defs><clipPath id="i0"><path d="M1440,0 L1440,3145 L0,3145 L0,0 L1440,0 Z"></path></clipPath><clipPath id="i1"><path d="M13.3053106,0.292896288 C13.6910481,-0.0928412543 14.3147601,-0.0982611425 14.7071428,0.280714746 L21.7072107,7.28078269 C22.0975964,7.67128633 22.0975964,8.30429278 21.7072107,8.69479642 L14.7071428,15.6948644 C14.4560658,15.9548235 14.0842588,16.0590805 13.734626,15.9675642 C13.3849932,15.8760478 13.1119456,15.6030002 13.0204292,15.2533674 C12.9289129,14.9037346 13.0331699,14.5319275 13.293129,14.2808506 L18.5861804,8.98779926 L1,8.98779926 C0.447719596,8.98779926 0,8.54007967 0,7.98778956 C0,7.43549944 0.447719596,6.98777985 1,6.98777985 L18.5861804,6.98777985 L13.293129,1.69472847 C12.9141531,1.30234578 12.919573,0.678633831 13.3053106,0.292896288 Z"></path></clipPath></defs><g transform="translate(-1307.0 -1120.0)"><g clip-path="url(#i0)"><g transform="translate(1289.0 1098.0)"><g transform="translate(18.0 21.999999999999133)"><g clip-path="url(#i1)"><polygon points="0,1.11022302e-16 22,1.11022302e-16 22,16.0001803 0,16.0001803 0,1.11022302e-16" stroke="none" fill="#A1CBD1"></polygon></g></g></g></g></g></svg>