<?xml version="1.0" encoding="UTF-8"?><svg version="1.1" width="28px" height="25px" viewBox="0 0 28.0 25.0" xmlns="http://www.w3.org/2000/svg" xmlns:xlink="http://www.w3.org/1999/xlink"><defs><clipPath id="i0"><path d="M1440,0 L1440,2390 L0,2390 L0,0 L1440,0 Z"></path></clipPath><clipPath id="i1"><path d="M21.6281608,18.1880313 C23.5062006,18.1880313 25.0341452,19.7159759 25.0341452,21.5940156 C25.0341452,23.4720553 23.5062006,25 21.6281608,25 C19.7501211,25 18.2221765,23.4720553 18.2221765,21.5940156 C18.2221765,19.7159759 19.7500678,18.1880313 21.6281608,18.1880313 Z M9.26434152,18.1880313 C11.1423812,18.1880313 12.6703259,19.7159759 12.6703259,21.5940156 C12.6703259,23.4720553 11.1423812,25 9.26434152,25 C7.3863018,25 5.85835715,23.4720553 5.85835715,21.5940156 C5.85835715,19.7159759 7.38624844,18.1880313 9.26434152,18.1880313 Z M21.6281608,20.2316219 C20.8768062,20.2316219 20.2657671,20.842661 20.2657671,21.5940156 C20.2657671,22.3453702 20.8768062,22.9564094 21.6281608,22.9564094 C22.3795154,22.9564094 22.9905546,22.3453702 22.9905546,21.5940156 C22.9905546,20.842661 22.3795154,20.2316219 21.6281608,20.2316219 Z M9.26434152,20.2316219 C8.51298692,20.2316219 7.90194777,20.842661 7.90194777,21.5940156 C7.90194777,22.3453702 8.51298692,22.9564094 9.26434152,22.9564094 C10.0156961,22.9564094 10.6267353,22.3453702 10.6267353,21.5940156 C10.6267353,20.842661 10.0156961,20.2316219 9.26434152,20.2316219 Z M4.39374118,0 C4.86649224,0 5.27762187,0.324592872 5.38763346,0.784379422 L6.30725991,4.63211741 L26.2943701,4.63211741 C26.6087194,4.63211741 26.9054092,4.77654096 27.0988632,5.02414706 C27.2923171,5.27175316 27.3614612,5.59431866 27.286235,5.8994381 L24.7998237,15.9471454 C24.6870912,16.4028772 24.2777222,16.7230418 23.8080122,16.7230418 L7.90194777,16.7230418 C7.42919671,16.7230418 7.01806708,16.3988224 6.90805549,15.9386624 L3.58722073,2.04353727 L1.02179531,2.04353727 C0.457439067,2.04353727 0,1.58609821 0,1.02174196 C0,0.457385715 0.457439067,0 1.02179531,0 Z M24.9887961,6.67570803 L6.79564307,6.67570803 L8.70846822,14.6795046 L23.0085875,14.6795046 L24.9887961,6.67570803 Z"></path></clipPath></defs><g transform="translate(-1138.0 -53.0)"><g clip-path="url(#i0)"><g transform="translate(1138.0000000000005 52.99999999999999)"><g clip-path="url(#i1)"><polygon points="0,0 27.315998,0 27.315998,25 0,25 0,0" stroke="none" fill="#676767"></polygon></g></g></g></g></svg>