<?xml version="1.0" encoding="UTF-8"?><svg version="1.1" width="400px" height="331px" viewBox="0 0 400.0 331.0" xmlns="http://www.w3.org/2000/svg" xmlns:xlink="http://www.w3.org/1999/xlink"><defs><clipPath id="i0"><path d="M1440,0 L1440,4734 L0,4734 L0,0 L1440,0 Z"></path></clipPath><clipPath id="i1"><path d="M396.50655,323.144105 C398.435929,323.144105 400,324.708176 400,326.637555 C400,328.566934 398.435929,330.131004 396.50655,330.131004 C394.577171,330.131004 393.0131,328.566934 393.0131,326.637555 C393.0131,324.708176 394.577171,323.144105 396.50655,323.144105 Z M352.838428,323.144105 C354.767807,323.144105 356.331878,324.708176 356.331878,326.637555 C356.331878,328.566934 354.767807,330.131004 352.838428,330.131004 C350.909049,330.131004 349.344978,328.566934 349.344978,326.637555 C349.344978,324.708176 350.909049,323.144105 352.838428,323.144105 Z M309.170306,323.144105 C311.099685,323.144105 312.663755,324.708176 312.663755,326.637555 C312.663755,328.566934 311.099685,330.131004 309.170306,330.131004 C307.240927,330.131004 305.676856,328.566934 305.676856,326.637555 C305.676856,324.708176 307.240927,323.144105 309.170306,323.144105 Z M265.502183,323.144105 C267.431562,323.144105 268.995633,324.708176 268.995633,326.637555 C268.995633,328.566934 267.431562,330.131004 265.502183,330.131004 C263.572804,330.131004 262.008734,328.566934 262.008734,326.637555 C262.008734,324.708176 263.572804,323.144105 265.502183,323.144105 Z M221.834061,323.144105 C223.76344,323.144105 225.327511,324.708176 225.327511,326.637555 C225.327511,328.566934 223.76344,330.131004 221.834061,330.131004 C219.904682,330.131004 218.340611,328.566934 218.340611,326.637555 C218.340611,324.708176 219.904682,323.144105 221.834061,323.144105 Z M178.165939,323.144105 C180.095318,323.144105 181.659389,324.708176 181.659389,326.637555 C181.659389,328.566934 180.095318,330.131004 178.165939,330.131004 C176.23656,330.131004 174.672489,328.566934 174.672489,326.637555 C174.672489,324.708176 176.23656,323.144105 178.165939,323.144105 Z M134.497817,323.144105 C136.427196,323.144105 137.991266,324.708176 137.991266,326.637555 C137.991266,328.566934 136.427196,330.131004 134.497817,330.131004 C132.568438,330.131004 131.004367,328.566934 131.004367,326.637555 C131.004367,324.708176 132.568438,323.144105 134.497817,323.144105 Z M90.8296943,323.144105 C92.7590734,323.144105 94.3231441,324.708176 94.3231441,326.637555 C94.3231441,328.566934 92.7590734,330.131004 90.8296943,330.131004 C88.9003153,330.131004 87.3362445,328.566934 87.3362445,326.637555 C87.3362445,324.708176 88.9003153,323.144105 90.8296943,323.144105 Z M47.1615721,323.144105 C49.0909511,323.144105 50.6550218,324.708176 50.6550218,326.637555 C50.6550218,328.566934 49.0909511,330.131004 47.1615721,330.131004 C45.232193,330.131004 43.6681223,328.566934 43.6681223,326.637555 C43.6681223,324.708176 45.232193,323.144105 47.1615721,323.144105 Z M3.49344978,323.144105 C5.42282882,323.144105 6.98689956,324.708176 6.98689956,326.637555 C6.98689956,328.566934 5.42282882,330.131004 3.49344978,330.131004 C1.56407074,330.131004 0,328.566934 0,326.637555 C0,324.708176 1.56407074,323.144105 3.49344978,323.144105 Z M396.50655,279.475983 C398.435929,279.475983 400,281.040053 400,282.969432 C400,284.898811 398.435929,286.462882 396.50655,286.462882 C394.577171,286.462882 393.0131,284.898811 393.0131,282.969432 C393.0131,281.040053 394.577171,279.475983 396.50655,279.475983 Z M221.834061,279.475983 C223.76344,279.475983 225.327511,281.040053 225.327511,282.969432 C225.327511,284.898811 223.76344,286.462882 221.834061,286.462882 C219.904682,286.462882 218.340611,284.898811 218.340611,282.969432 C218.340611,281.040053 219.904682,279.475983 221.834061,279.475983 Z M265.502183,279.475983 C267.431562,279.475983 268.995633,281.040053 268.995633,282.969432 C268.995633,284.898811 267.431562,286.462882 265.502183,286.462882 C263.572804,286.462882 262.008734,284.898811 262.008734,282.969432 C262.008734,281.040053 263.572804,279.475983 265.502183,279.475983 Z M309.170306,279.475983 C311.099685,279.475983 312.663755,281.040053 312.663755,282.969432 C312.663755,284.898811 311.099685,286.462882 309.170306,286.462882 C307.240927,286.462882 305.676856,284.898811 305.676856,282.969432 C305.676856,281.040053 307.240927,279.475983 309.170306,279.475983 Z M352.838428,279.475983 C354.767807,279.475983 356.331878,281.040053 356.331878,282.969432 C356.331878,284.898811 354.767807,286.462882 352.838428,286.462882 C350.909049,286.462882 349.344978,284.898811 349.344978,282.969432 C349.344978,281.040053 350.909049,279.475983 352.838428,279.475983 Z M178.165939,279.475983 C180.095318,279.475983 181.659389,281.040053 181.659389,282.969432 C181.659389,284.898811 180.095318,286.462882 178.165939,286.462882 C176.23656,286.462882 174.672489,284.898811 174.672489,282.969432 C174.672489,281.040053 176.23656,279.475983 178.165939,279.475983 Z M134.497817,279.475983 C136.427196,279.475983 137.991266,281.040053 137.991266,282.969432 C137.991266,284.898811 136.427196,286.462882 134.497817,286.462882 C132.568438,286.462882 131.004367,284.898811 131.004367,282.969432 C131.004367,281.040053 132.568438,279.475983 134.497817,279.475983 Z M90.8296943,279.475983 C92.7590734,279.475983 94.3231441,281.040053 94.3231441,282.969432 C94.3231441,284.898811 92.7590734,286.462882 90.8296943,286.462882 C88.9003153,286.462882 87.3362445,284.898811 87.3362445,282.969432 C87.3362445,281.040053 88.9003153,279.475983 90.8296943,279.475983 Z M47.1615721,279.475983 C49.0909511,279.475983 50.6550218,281.040053 50.6550218,282.969432 C50.6550218,284.898811 49.0909511,286.462882 47.1615721,286.462882 C45.232193,286.462882 43.6681223,284.898811 43.6681223,282.969432 C43.6681223,281.040053 45.232193,279.475983 47.1615721,279.475983 Z M3.49344978,279.475983 C5.42282882,279.475983 6.98689956,281.040053 6.98689956,282.969432 C6.98689956,284.898811 5.42282882,286.462882 3.49344978,286.462882 C1.56407074,286.462882 0,284.898811 0,282.969432 C0,281.040053 1.56407074,279.475983 3.49344978,279.475983 Z M396.50655,227.074236 C398.435929,227.074236 400,228.638307 400,230.567686 C400,232.497065 398.435929,234.061135 396.50655,234.061135 C394.577171,234.061135 393.0131,232.497065 393.0131,230.567686 C393.0131,228.638307 394.577171,227.074236 396.50655,227.074236 Z M3.49344978,227.074236 C5.42282882,227.074236 6.98689956,228.638307 6.98689956,230.567686 C6.98689956,232.497065 5.42282882,234.061135 3.49344978,234.061135 C1.56407074,234.061135 0,232.497065 0,230.567686 C0,228.638307 1.56407074,227.074236 3.49344978,227.074236 Z M47.1615721,227.074236 C49.0909511,227.074236 50.6550218,228.638307 50.6550218,230.567686 C50.6550218,232.497065 49.0909511,234.061135 47.1615721,234.061135 C45.232193,234.061135 43.6681223,232.497065 43.6681223,230.567686 C43.6681223,228.638307 45.232193,227.074236 47.1615721,227.074236 Z M90.8296943,227.074236 C92.7590734,227.074236 94.3231441,228.638307 94.3231441,230.567686 C94.3231441,232.497065 92.7590734,234.061135 90.8296943,234.061135 C88.9003153,234.061135 87.3362445,232.497065 87.3362445,230.567686 C87.3362445,228.638307 88.9003153,227.074236 90.8296943,227.074236 Z M134.497817,227.074236 C136.427196,227.074236 137.991266,228.638307 137.991266,230.567686 C137.991266,232.497065 136.427196,234.061135 134.497817,234.061135 C132.568438,234.061135 131.004367,232.497065 131.004367,230.567686 C131.004367,228.638307 132.568438,227.074236 134.497817,227.074236 Z M178.165939,227.074236 C180.095318,227.074236 181.659389,228.638307 181.659389,230.567686 C181.659389,232.497065 180.095318,234.061135 178.165939,234.061135 C176.23656,234.061135 174.672489,232.497065 174.672489,230.567686 C174.672489,228.638307 176.23656,227.074236 178.165939,227.074236 Z M352.838428,227.074236 C354.767807,227.074236 356.331878,228.638307 356.331878,230.567686 C356.331878,232.497065 354.767807,234.061135 352.838428,234.061135 C350.909049,234.061135 349.344978,232.497065 349.344978,230.567686 C349.344978,228.638307 350.909049,227.074236 352.838428,227.074236 Z M309.170306,227.074236 C311.099685,227.074236 312.663755,228.638307 312.663755,230.567686 C312.663755,232.497065 311.099685,234.061135 309.170306,234.061135 C307.240927,234.061135 305.676856,232.497065 305.676856,230.567686 C305.676856,228.638307 307.240927,227.074236 309.170306,227.074236 Z M265.502183,227.074236 C267.431562,227.074236 268.995633,228.638307 268.995633,230.567686 C268.995633,232.497065 267.431562,234.061135 265.502183,234.061135 C263.572804,234.061135 262.008734,232.497065 262.008734,230.567686 C262.008734,228.638307 263.572804,227.074236 265.502183,227.074236 Z M221.834061,227.074236 C223.76344,227.074236 225.327511,228.638307 225.327511,230.567686 C225.327511,232.497065 223.76344,234.061135 221.834061,234.061135 C219.904682,234.061135 218.340611,232.497065 218.340611,230.567686 C218.340611,228.638307 219.904682,227.074236 221.834061,227.074236 Z M47.1615721,183.406114 C49.0909511,183.406114 50.6550218,184.970184 50.6550218,186.899563 C50.6550218,188.828942 49.0909511,190.393013 47.1615721,190.393013 C45.232193,190.393013 43.6681223,188.828942 43.6681223,186.899563 C43.6681223,184.970184 45.232193,183.406114 47.1615721,183.406114 Z M90.8296943,183.406114 C92.7590734,183.406114 94.3231441,184.970184 94.3231441,186.899563 C94.3231441,188.828942 92.7590734,190.393013 90.8296943,190.393013 C88.9003153,190.393013 87.3362445,188.828942 87.3362445,186.899563 C87.3362445,184.970184 88.9003153,183.406114 90.8296943,183.406114 Z M134.497817,183.406114 C136.427196,183.406114 137.991266,184.970184 137.991266,186.899563 C137.991266,188.828942 136.427196,190.393013 134.497817,190.393013 C132.568438,190.393013 131.004367,188.828942 131.004367,186.899563 C131.004367,184.970184 132.568438,183.406114 134.497817,183.406114 Z M178.165939,183.406114 C180.095318,183.406114 181.659389,184.970184 181.659389,186.899563 C181.659389,188.828942 180.095318,190.393013 178.165939,190.393013 C176.23656,190.393013 174.672489,188.828942 174.672489,186.899563 C174.672489,184.970184 176.23656,183.406114 178.165939,183.406114 Z M396.50655,183.406114 C398.435929,183.406114 400,184.970184 400,186.899563 C400,188.828942 398.435929,190.393013 396.50655,190.393013 C394.577171,190.393013 393.0131,188.828942 393.0131,186.899563 C393.0131,184.970184 394.577171,183.406114 396.50655,183.406114 Z M3.49344978,183.406114 C5.42282882,183.406114 6.98689956,184.970184 6.98689956,186.899563 C6.98689956,188.828942 5.42282882,190.393013 3.49344978,190.393013 C1.56407074,190.393013 0,188.828942 0,186.899563 C0,184.970184 1.56407074,183.406114 3.49344978,183.406114 Z M352.838428,183.406114 C354.767807,183.406114 356.331878,184.970184 356.331878,186.899563 C356.331878,188.828942 354.767807,190.393013 352.838428,190.393013 C350.909049,190.393013 349.344978,188.828942 349.344978,186.899563 C349.344978,184.970184 350.909049,183.406114 352.838428,183.406114 Z M309.170306,183.406114 C311.099685,183.406114 312.663755,184.970184 312.663755,186.899563 C312.663755,188.828942 311.099685,190.393013 309.170306,190.393013 C307.240927,190.393013 305.676856,188.828942 305.676856,186.899563 C305.676856,184.970184 307.240927,183.406114 309.170306,183.406114 Z M265.502183,183.406114 C267.431562,183.406114 268.995633,184.970184 268.995633,186.899563 C268.995633,188.828942 267.431562,190.393013 265.502183,190.393013 C263.572804,190.393013 262.008734,188.828942 262.008734,186.899563 C262.008734,184.970184 263.572804,183.406114 265.502183,183.406114 Z M221.834061,183.406114 C223.76344,183.406114 225.327511,184.970184 225.327511,186.899563 C225.327511,188.828942 223.76344,190.393013 221.834061,190.393013 C219.904682,190.393013 218.340611,188.828942 218.340611,186.899563 C218.340611,184.970184 219.904682,183.406114 221.834061,183.406114 Z M178.165939,139.737991 C180.095318,139.737991 181.659389,141.302062 181.659389,143.231441 C181.659389,145.16082 180.095318,146.724891 178.165939,146.724891 C176.23656,146.724891 174.672489,145.16082 174.672489,143.231441 C174.672489,141.302062 176.23656,139.737991 178.165939,139.737991 Z M134.497817,139.737991 C136.427196,139.737991 137.991266,141.302062 137.991266,143.231441 C137.991266,145.16082 136.427196,146.724891 134.497817,146.724891 C132.568438,146.724891 131.004367,145.16082 131.004367,143.231441 C131.004367,141.302062 132.568438,139.737991 134.497817,139.737991 Z M90.8296943,139.737991 C92.7590734,139.737991 94.3231441,141.302062 94.3231441,143.231441 C94.3231441,145.16082 92.7590734,146.724891 90.8296943,146.724891 C88.9003153,146.724891 87.3362445,145.16082 87.3362445,143.231441 C87.3362445,141.302062 88.9003153,139.737991 90.8296943,139.737991 Z M47.1615721,139.737991 C49.0909511,139.737991 50.6550218,141.302062 50.6550218,143.231441 C50.6550218,145.16082 49.0909511,146.724891 47.1615721,146.724891 C45.232193,146.724891 43.6681223,145.16082 43.6681223,143.231441 C43.6681223,141.302062 45.232193,139.737991 47.1615721,139.737991 Z M3.49344978,139.737991 C5.42282882,139.737991 6.98689956,141.302062 6.98689956,143.231441 C6.98689956,145.16082 5.42282882,146.724891 3.49344978,146.724891 C1.56407074,146.724891 0,145.16082 0,143.231441 C0,141.302062 1.56407074,139.737991 3.49344978,139.737991 Z M396.50655,139.737991 C398.435929,139.737991 400,141.302062 400,143.231441 C400,145.16082 398.435929,146.724891 396.50655,146.724891 C394.577171,146.724891 393.0131,145.16082 393.0131,143.231441 C393.0131,141.302062 394.577171,139.737991 396.50655,139.737991 Z M352.838428,139.737991 C354.767807,139.737991 356.331878,141.302062 356.331878,143.231441 C356.331878,145.16082 354.767807,146.724891 352.838428,146.724891 C350.909049,146.724891 349.344978,145.16082 349.344978,143.231441 C349.344978,141.302062 350.909049,139.737991 352.838428,139.737991 Z M309.170306,139.737991 C311.099685,139.737991 312.663755,141.302062 312.663755,143.231441 C312.663755,145.16082 311.099685,146.724891 309.170306,146.724891 C307.240927,146.724891 305.676856,145.16082 305.676856,143.231441 C305.676856,141.302062 307.240927,139.737991 309.170306,139.737991 Z M265.502183,139.737991 C267.431562,139.737991 268.995633,141.302062 268.995633,143.231441 C268.995633,145.16082 267.431562,146.724891 265.502183,146.724891 C263.572804,146.724891 262.008734,145.16082 262.008734,143.231441 C262.008734,141.302062 263.572804,139.737991 265.502183,139.737991 Z M221.834061,139.737991 C223.76344,139.737991 225.327511,141.302062 225.327511,143.231441 C225.327511,145.16082 223.76344,146.724891 221.834061,146.724891 C219.904682,146.724891 218.340611,145.16082 218.340611,143.231441 C218.340611,141.302062 219.904682,139.737991 221.834061,139.737991 Z M221.834061,96.069869 C223.76344,96.069869 225.327511,97.6339397 225.327511,99.5633188 C225.327511,101.492698 223.76344,103.056769 221.834061,103.056769 C219.904682,103.056769 218.340611,101.492698 218.340611,99.5633188 C218.340611,97.6339397 219.904682,96.069869 221.834061,96.069869 Z M265.502183,96.069869 C267.431562,96.069869 268.995633,97.6339397 268.995633,99.5633188 C268.995633,101.492698 267.431562,103.056769 265.502183,103.056769 C263.572804,103.056769 262.008734,101.492698 262.008734,99.5633188 C262.008734,97.6339397 263.572804,96.069869 265.502183,96.069869 Z M309.170306,96.069869 C311.099685,96.069869 312.663755,97.6339397 312.663755,99.5633188 C312.663755,101.492698 311.099685,103.056769 309.170306,103.056769 C307.240927,103.056769 305.676856,101.492698 305.676856,99.5633188 C305.676856,97.6339397 307.240927,96.069869 309.170306,96.069869 Z M352.838428,96.069869 C354.767807,96.069869 356.331878,97.6339397 356.331878,99.5633188 C356.331878,101.492698 354.767807,103.056769 352.838428,103.056769 C350.909049,103.056769 349.344978,101.492698 349.344978,99.5633188 C349.344978,97.6339397 350.909049,96.069869 352.838428,96.069869 Z M396.50655,96.069869 C398.435929,96.069869 400,97.6339397 400,99.5633188 C400,101.492698 398.435929,103.056769 396.50655,103.056769 C394.577171,103.056769 393.0131,101.492698 393.0131,99.5633188 C393.0131,97.6339397 394.577171,96.069869 396.50655,96.069869 Z M3.49344978,96.069869 C5.42282882,96.069869 6.98689956,97.6339397 6.98689956,99.5633188 C6.98689956,101.492698 5.42282882,103.056769 3.49344978,103.056769 C1.56407074,103.056769 0,101.492698 0,99.5633188 C0,97.6339397 1.56407074,96.069869 3.49344978,96.069869 Z M47.1615721,96.069869 C49.0909511,96.069869 50.6550218,97.6339397 50.6550218,99.5633188 C50.6550218,101.492698 49.0909511,103.056769 47.1615721,103.056769 C45.232193,103.056769 43.6681223,101.492698 43.6681223,99.5633188 C43.6681223,97.6339397 45.232193,96.069869 47.1615721,96.069869 Z M90.8296943,96.069869 C92.7590734,96.069869 94.3231441,97.6339397 94.3231441,99.5633188 C94.3231441,101.492698 92.7590734,103.056769 90.8296943,103.056769 C88.9003153,103.056769 87.3362445,101.492698 87.3362445,99.5633188 C87.3362445,97.6339397 88.9003153,96.069869 90.8296943,96.069869 Z M134.497817,96.069869 C136.427196,96.069869 137.991266,97.6339397 137.991266,99.5633188 C137.991266,101.492698 136.427196,103.056769 134.497817,103.056769 C132.568438,103.056769 131.004367,101.492698 131.004367,99.5633188 C131.004367,97.6339397 132.568438,96.069869 134.497817,96.069869 Z M178.165939,96.069869 C180.095318,96.069869 181.659389,97.6339397 181.659389,99.5633188 C181.659389,101.492698 180.095318,103.056769 178.165939,103.056769 C176.23656,103.056769 174.672489,101.492698 174.672489,99.5633188 C174.672489,97.6339397 176.23656,96.069869 178.165939,96.069869 Z M396.50655,43.6681223 C398.435929,43.6681223 400,45.232193 400,47.1615721 C400,49.0909511 398.435929,50.6550218 396.50655,50.6550218 C394.577171,50.6550218 393.0131,49.0909511 393.0131,47.1615721 C393.0131,45.232193 394.577171,43.6681223 396.50655,43.6681223 Z M352.838428,43.6681223 C354.767807,43.6681223 356.331878,45.232193 356.331878,47.1615721 C356.331878,49.0909511 354.767807,50.6550218 352.838428,50.6550218 C350.909049,50.6550218 349.344978,49.0909511 349.344978,47.1615721 C349.344978,45.232193 350.909049,43.6681223 352.838428,43.6681223 Z M309.170306,43.6681223 C311.099685,43.6681223 312.663755,45.232193 312.663755,47.1615721 C312.663755,49.0909511 311.099685,50.6550218 309.170306,50.6550218 C307.240927,50.6550218 305.676856,49.0909511 305.676856,47.1615721 C305.676856,45.232193 307.240927,43.6681223 309.170306,43.6681223 Z M265.502183,43.6681223 C267.431562,43.6681223 268.995633,45.232193 268.995633,47.1615721 C268.995633,49.0909511 267.431562,50.6550218 265.502183,50.6550218 C263.572804,50.6550218 262.008734,49.0909511 262.008734,47.1615721 C262.008734,45.232193 263.572804,43.6681223 265.502183,43.6681223 Z M3.49344978,43.6681223 C5.42282882,43.6681223 6.98689956,45.232193 6.98689956,47.1615721 C6.98689956,49.0909511 5.42282882,50.6550218 3.49344978,50.6550218 C1.56407074,50.6550218 0,49.0909511 0,47.1615721 C0,45.232193 1.56407074,43.6681223 3.49344978,43.6681223 Z M47.1615721,43.6681223 C49.0909511,43.6681223 50.6550218,45.232193 50.6550218,47.1615721 C50.6550218,49.0909511 49.0909511,50.6550218 47.1615721,50.6550218 C45.232193,50.6550218 43.6681223,49.0909511 43.6681223,47.1615721 C43.6681223,45.232193 45.232193,43.6681223 47.1615721,43.6681223 Z M90.8296943,43.6681223 C92.7590734,43.6681223 94.3231441,45.232193 94.3231441,47.1615721 C94.3231441,49.0909511 92.7590734,50.6550218 90.8296943,50.6550218 C88.9003153,50.6550218 87.3362445,49.0909511 87.3362445,47.1615721 C87.3362445,45.232193 88.9003153,43.6681223 90.8296943,43.6681223 Z M134.497817,43.6681223 C136.427196,43.6681223 137.991266,45.232193 137.991266,47.1615721 C137.991266,49.0909511 136.427196,50.6550218 134.497817,50.6550218 C132.568438,50.6550218 131.004367,49.0909511 131.004367,47.1615721 C131.004367,45.232193 132.568438,43.6681223 134.497817,43.6681223 Z M178.165939,43.6681223 C180.095318,43.6681223 181.659389,45.232193 181.659389,47.1615721 C181.659389,49.0909511 180.095318,50.6550218 178.165939,50.6550218 C176.23656,50.6550218 174.672489,49.0909511 174.672489,47.1615721 C174.672489,45.232193 176.23656,43.6681223 178.165939,43.6681223 Z M221.834061,43.6681223 C223.76344,43.6681223 225.327511,45.232193 225.327511,47.1615721 C225.327511,49.0909511 223.76344,50.6550218 221.834061,50.6550218 C219.904682,50.6550218 218.340611,49.0909511 218.340611,47.1615721 C218.340611,45.232193 219.904682,43.6681223 221.834061,43.6681223 Z M396.50655,0 C398.435929,0 400,1.56407074 400,3.49344978 C400,5.42282882 398.435929,6.98689956 396.50655,6.98689956 C394.577171,6.98689956 393.0131,5.42282882 393.0131,3.49344978 C393.0131,1.56407074 394.577171,0 396.50655,0 Z M352.838428,0 C354.767807,0 356.331878,1.56407074 356.331878,3.49344978 C356.331878,5.42282882 354.767807,6.98689956 352.838428,6.98689956 C350.909049,6.98689956 349.344978,5.42282882 349.344978,3.49344978 C349.344978,1.56407074 350.909049,0 352.838428,0 Z M309.170306,0 C311.099685,0 312.663755,1.56407074 312.663755,3.49344978 C312.663755,5.42282882 311.099685,6.98689956 309.170306,6.98689956 C307.240927,6.98689956 305.676856,5.42282882 305.676856,3.49344978 C305.676856,1.56407074 307.240927,0 309.170306,0 Z M265.502183,0 C267.431562,0 268.995633,1.56407074 268.995633,3.49344978 C268.995633,5.42282882 267.431562,6.98689956 265.502183,6.98689956 C263.572804,6.98689956 262.008734,5.42282882 262.008734,3.49344978 C262.008734,1.56407074 263.572804,0 265.502183,0 Z M3.49344978,0 C5.42282882,0 6.98689956,1.56407074 6.98689956,3.49344978 C6.98689956,5.42282882 5.42282882,6.98689956 3.49344978,6.98689956 C1.56407074,6.98689956 0,5.42282882 0,3.49344978 C0,1.56407074 1.56407074,0 3.49344978,0 Z M178.165939,0 C180.095318,0 181.659389,1.56407074 181.659389,3.49344978 C181.659389,5.42282882 180.095318,6.98689956 178.165939,6.98689956 C176.23656,6.98689956 174.672489,5.42282882 174.672489,3.49344978 C174.672489,1.56407074 176.23656,0 178.165939,0 Z M134.497817,0 C136.427196,0 137.991266,1.56407074 137.991266,3.49344978 C137.991266,5.42282882 136.427196,6.98689956 134.497817,6.98689956 C132.568438,6.98689956 131.004367,5.42282882 131.004367,3.49344978 C131.004367,1.56407074 132.568438,0 134.497817,0 Z M90.8296943,0 C92.7590734,0 94.3231441,1.56407074 94.3231441,3.49344978 C94.3231441,5.42282882 92.7590734,6.98689956 90.8296943,6.98689956 C88.9003153,6.98689956 87.3362445,5.42282882 87.3362445,3.49344978 C87.3362445,1.56407074 88.9003153,0 90.8296943,0 Z M47.1615721,0 C49.0909511,0 50.6550218,1.56407074 50.6550218,3.49344978 C50.6550218,5.42282882 49.0909511,6.98689956 47.1615721,6.98689956 C45.232193,6.98689956 43.6681223,5.42282882 43.6681223,3.49344978 C43.6681223,1.56407074 45.232193,0 47.1615721,0 Z M221.834061,0 C223.76344,0 225.327511,1.56407074 225.327511,3.49344978 C225.327511,5.42282882 223.76344,6.98689956 221.834061,6.98689956 C219.904682,6.98689956 218.340611,5.42282882 218.340611,3.49344978 C218.340611,1.56407074 219.904682,0 221.834061,0 Z"></path></clipPath><linearGradient id="i2" x1="0px" y1="165.065502px" x2="400px" y2="165.065502px" gradientUnits="userSpaceOnUse"><stop stop-color="#676767" offset="0%"></stop><stop stop-color="rgba(103, 103, 103, 0)" offset="100%"></stop></linearGradient></defs><g transform="translate(-903.0 -154.0)"><g clip-path="url(#i0)"><g transform="translate(903.0 154.00000000000003)"><g clip-path="url(#i1)"><polygon points="0,0 400,0 400,330.131004 0,330.131004 0,0" stroke="none" fill="url(#i2)"></polygon></g></g></g></g></svg>