<?xml version="1.0" encoding="UTF-8"?>
<svg width="22px" height="16px" viewBox="0 0 22 16" version="1.1" xmlns="http://www.w3.org/2000/svg" xmlns:xlink="http://www.w3.org/1999/xlink">
    <title>Path</title>
    <g id="Symbols" stroke="none" stroke-width="1" fill="none" fill-rule="evenodd">
        <g id="Footer" transform="translate(-998.000000, -207.000000)" fill="#A1CCD1" fill-rule="nonzero">
            <g id="next" transform="translate(998.000000, 207.000000)">
                <path d="M21.7072107,7.28078269 L14.7071428,0.280714746 C14.3147601,-0.0982611425 13.6910481,-0.0928412543 13.3053106,0.292896288 C12.919573,0.678633831 12.9141531,1.30234578 13.293129,1.69472847 L18.5861804,6.98777985 L1,6.98777985 C0.447719596,6.98777985 0,7.43549944 0,7.98778956 C0,8.54007967 0.447719596,8.98779926 1,8.98779926 L18.5861804,8.98779926 L13.293129,14.2808506 C13.0331699,14.5319275 12.9289129,14.9037346 13.0204292,15.2533674 C13.1119456,15.6030002 13.3849932,15.8760478 13.734626,15.9675642 C14.0842588,16.0590805 14.4560658,15.9548235 14.7071428,15.6948644 L21.7072107,8.69479642 C22.0975964,8.30429278 22.0975964,7.67128633 21.7072107,7.28078269 Z" id="Path"></path>
            </g>
        </g>
    </g>
</svg>