<?xml version="1.0" encoding="UTF-8"?>
<svg width="25px" height="25px" viewBox="0 0 25 25" version="1.1" xmlns="http://www.w3.org/2000/svg" xmlns:xlink="http://www.w3.org/1999/xlink">
    <title>user</title>
    <g id="Desktop" stroke="none" stroke-width="1" fill="none" fill-rule="evenodd">
        <g id="Evolution-2" transform="translate(-1245.000000, -53.000000)" fill="#676767" fill-rule="nonzero">
            <g id="Group" transform="translate(1225.000000, 36.000000)">
                <g id="user" transform="translate(20.000000, 17.000000)">
                    <path d="M23.0169296,15.8697128 C22.1883774,15.1416778 21.1835861,14.5126343 20.0302124,14.0001297 C19.5371628,13.7811661 18.9601898,14.0031814 18.7412262,14.4960403 C18.5222626,14.9888992 18.7442779,15.5658722 19.2371368,15.7850266 C20.2096939,16.2172317 21.0477829,16.739273 21.7277527,17.3368454 C22.5660324,18.0734634 23.046875,19.1400528 23.046875,20.2636719 L23.046875,22.0703125 C23.046875,22.608757 22.608757,23.046875 22.0703125,23.046875 L2.9296875,23.046875 C2.39124297,23.046875 1.953125,22.608757 1.953125,22.0703125 L1.953125,20.2636719 C1.953125,19.1400528 2.43396758,18.0734634 3.27224731,17.3368454 C4.25891875,16.4697647 7.13367461,14.453125 12.5,14.453125 C16.484642,14.453125 19.7265625,11.2112045 19.7265625,7.2265625 C19.7265625,3.24192046 16.484642,0 12.5,0 C8.51535796,0 5.2734375,3.24192046 5.2734375,7.2265625 C5.2734375,9.55600737 6.38160703,11.6312027 8.0982208,12.9535675 C4.95719912,13.6440277 3.00331113,14.9730683 1.98307036,15.8697128 C0.722885156,16.9769287 0,18.5783386 0,20.2636719 L0,22.0703125 C0,23.6858368 1.31416318,25 2.9296875,25 L22.0703125,25 C23.6858368,25 25,23.6858368 25,22.0703125 L25,20.2636719 C25,18.5783386 24.2771148,16.9769287 23.0169296,15.8697128 Z M7.2265625,7.2265625 C7.2265625,4.31880952 9.59224702,1.953125 12.5,1.953125 C15.407753,1.953125 17.7734375,4.31880952 17.7734375,7.2265625 C17.7734375,10.1343155 15.407753,12.5 12.5,12.5 C9.59224702,12.5 7.2265625,10.1343155 7.2265625,7.2265625 Z" id="Shape"></path>
                </g>
            </g>
        </g>
    </g>
</svg>