<?xml version="1.0" encoding="UTF-8"?><svg version="1.1" width="220px" height="42px" viewBox="0 0 220.0 42.0" xmlns="http://www.w3.org/2000/svg" xmlns:xlink="http://www.w3.org/1999/xlink"><defs><clipPath id="i0"><path d="M1440,0 L1440,4734 L0,4734 L0,0 L1440,0 Z"></path></clipPath><clipPath id="i1"><path d="M41.8837675,0 L41.8837675,41.8837675 L0,41.8837675 L0,0 L41.8837675,0 Z"></path></clipPath><clipPath id="i2"><path d="M15.3159614,0 L18.9159578,11.1195158 L30.6106209,11.1195158 L21.152642,17.9786806 L24.7526385,29.0981964 L15.2946596,22.2177297 L5.83668068,29.0981964 L9.45797892,17.9786806 L0,11.098214 L11.6946631,11.1195158 L15.3159614,0 Z M21.152642,17.9786806 L15.3159614,22.2177297 L21.9621087,20.4922876 L21.152642,17.9786806 Z"></path></clipPath><clipPath id="i3"><path d="M41.8837675,0 L41.8837675,41.8837675 L0,41.8837675 L0,0 L41.8837675,0 Z"></path></clipPath><clipPath id="i4"><path d="M15.3159614,0 L18.9159578,11.1195158 L30.6106209,11.1195158 L21.152642,17.9786806 L24.7526385,29.0981964 L15.2946596,22.2177297 L5.83668068,29.0981964 L9.45797892,17.9786806 L0,11.098214 L11.6946631,11.1195158 L15.3159614,0 Z M21.152642,17.9786806 L15.3159614,22.2177297 L21.9621087,20.4922876 L21.152642,17.9786806 Z"></path></clipPath><clipPath id="i5"><path d="M41.8837675,0 L41.8837675,41.8837675 L0,41.8837675 L0,0 L41.8837675,0 Z"></path></clipPath><clipPath id="i6"><path d="M15.3159614,0 L18.9159578,11.1195158 L30.6106209,11.1195158 L21.152642,17.9786806 L24.7526385,29.0981964 L15.2946596,22.2177297 L5.83668068,29.0981964 L9.45797892,17.9786806 L0,11.098214 L11.6946631,11.1195158 L15.3159614,0 Z M21.152642,17.9786806 L15.3159614,22.2177297 L21.9621087,20.4922876 L21.152642,17.9786806 Z"></path></clipPath><clipPath id="i7"><path d="M41.8837675,0 L41.8837675,41.8837675 L0,41.8837675 L0,0 L41.8837675,0 Z"></path></clipPath><clipPath id="i8"><path d="M15.3159614,0 L18.9159578,11.1195158 L30.6106209,11.1195158 L21.152642,17.9786806 L24.7526385,29.0981964 L15.2946596,22.2177297 L5.83668068,29.0981964 L9.45797892,17.9786806 L0,11.098214 L11.6946631,11.1195158 L15.3159614,0 Z M21.152642,17.9786806 L15.3159614,22.2177297 L21.9621087,20.4922876 L21.152642,17.9786806 Z"></path></clipPath><clipPath id="i9"><path d="M15.3159614,0 L18.9159578,11.1195158 L30.6106209,11.1195158 L21.152642,17.9786806 L24.7526385,29.0981964 L15.2946596,22.2177297 L5.83668068,29.0981964 L9.45797892,17.9786806 L0,11.098214 L11.6946631,11.1195158 L15.3159614,0 Z M21.152642,17.9786806 L15.3159614,22.2177297 L21.9621087,20.4922876 L21.152642,17.9786806 Z"></path></clipPath></defs><g transform="translate(-610.0 -2802.0)"><g clip-path="url(#i0)"><g transform="translate(610.0 2802.0)"><g clip-path="url(#i1)"><polygon points="0,0 41.8837675,0 41.8837675,41.8837675 0,41.8837675 0,0" stroke="none" fill="#C5E3E7"></polygon></g><g transform="translate(5.290581162324688 5.731462925851629)"><g clip-path="url(#i2)"><polygon points="0,0 30.6106209,0 30.6106209,29.0981964 0,29.0981964 0,0" stroke="none" fill="#FFFFFF"></polygon></g></g><g transform="translate(44.52905811623252 0.0)"><g clip-path="url(#i3)"><polygon points="0,0 41.8837675,0 41.8837675,41.8837675 0,41.8837675 0,0" stroke="none" fill="#C5E3E7"></polygon></g></g><g transform="translate(49.8196392785571 5.731462925851629)"><g clip-path="url(#i4)"><polygon points="0,0 30.6106209,0 30.6106209,29.0981964 0,29.0981964 0,0" stroke="none" fill="#FFFFFF"></polygon></g></g><g transform="translate(89.05811623246493 0.0)"><g clip-path="url(#i5)"><polygon points="0,0 41.8837675,0 41.8837675,41.8837675 0,41.8837675 0,0" stroke="none" fill="#C5E3E7"></polygon></g></g><g transform="translate(94.34869739478961 5.731462925851629)"><g clip-path="url(#i6)"><polygon points="0,0 30.6106209,0 30.6106209,29.0981964 0,29.0981964 0,0" stroke="none" fill="#FFFFFF"></polygon></g></g><g transform="translate(133.5871743486974 0.0)"><g clip-path="url(#i7)"><polygon points="0,0 41.8837675,0 41.8837675,41.8837675 0,41.8837675 0,0" stroke="none" fill="#C5E3E7"></polygon></g></g><g transform="translate(138.8777555110221 5.731462925851629)"><g clip-path="url(#i8)"><polygon points="0,0 30.6106209,0 30.6106209,29.0981964 0,29.0981964 0,0" stroke="none" fill="#FFFFFF"></polygon></g></g><g transform="translate(178.1162324649299 0.0)"><g clip-path="url(#i7)"><polygon points="0,0 41.8837675,0 41.8837675,41.8837675 0,41.8837675 0,0" stroke="none" fill="#C5E3E7"></polygon></g></g><g transform="translate(183.4068136272545 5.731462925851629)"><g clip-path="url(#i9)"><polygon points="0,0 30.6106209,0 30.6106209,29.0981964 0,29.0981964 0,0" stroke="none" fill="#FFFFFF"></polygon></g></g></g></g></g></svg>