<?xml version="1.0" encoding="UTF-8"?><svg version="1.1" width="99px" height="21px" viewBox="0 0 99.0 21.0" xmlns="http://www.w3.org/2000/svg" xmlns:xlink="http://www.w3.org/1999/xlink"><defs><clipPath id="i0"><path d="M1440,0 L1440,4734 L0,4734 L0,0 L1440,0 Z"></path></clipPath><clipPath id="i1"><path d="M60.3943218,4.23974763 C61.3438486,4.23974763 62.1608833,4.39432177 62.8675079,4.74763407 C63.5741325,5.07886435 64.148265,5.52050473 64.6119874,6.11671924 C65.0757098,6.69085174 65.4290221,7.37539432 65.6498423,8.14826498 C65.8706625,8.92113565 66.0031546,9.76025237 66.0031546,10.6214511 C66.0031546,11.4384858 65.8927445,12.2113565 65.6940063,12.9621451 C65.4731861,13.7129338 65.1640379,14.3974763 64.7444795,14.9716088 C64.3249211,15.5457413 63.7949527,16.0094637 63.1324921,16.362776 C62.4700315,16.7160883 61.7192429,16.8927445 60.8359621,16.8927445 C60.4605678,16.8927445 60.0630915,16.8485804 59.6876972,16.7823344 C59.3123028,16.7160883 58.9369085,16.6056782 58.5835962,16.4511041 C58.2302839,16.29653 57.8990536,16.0977918 57.6119874,15.8548896 C57.3028391,15.6119874 57.0599369,15.3249211 56.8611987,15.0157729 L56.8170347,15.0157729 L56.8170347,21 L54.1671924,21 L54.1671924,4.57097792 L56.6403785,4.57097792 L56.6403785,6.20504732 L56.6845426,6.20504732 C57.0599369,5.49842271 57.5678233,5.0126183 58.2302839,4.70347003 C58.8927445,4.39432177 59.5993691,4.23974763 60.3943218,4.23974763 Z M24.1135647,4.57097792 L24.1135647,11.9242902 C24.1135647,12.9842271 24.3123028,13.7350158 24.7318612,14.1545741 C25.1293375,14.5962145 25.70347,14.8170347 26.4321767,14.8170347 C26.9842271,14.8170347 27.4479495,14.7287066 27.8233438,14.5520505 C28.1987382,14.3753943 28.5078864,14.1545741 28.7287066,13.8675079 C28.9716088,13.5804416 29.126183,13.2271293 29.2365931,12.829653 C29.3470032,12.4321767 29.3911672,11.9905363 29.3911672,11.5268139 L29.3911672,4.57097792 L32.0410095,4.57097792 L32.0410095,16.5615142 L29.4132492,16.5615142 L29.4132492,14.8832808 L29.3690852,14.8832808 C29.0378549,15.5015773 28.5520505,15.9652997 27.9116719,16.340694 C27.2712934,16.7160883 26.6088328,16.8927445 25.9463722,16.8927445 C24.3785489,16.8927445 23.2302839,16.5173502 22.5236593,15.7223975 C21.8170347,14.9495268 21.4637224,13.7570978 21.4637224,12.1892744 L21.4637224,4.57097792 L24.1135647,4.57097792 Z M39.1514196,4.21766562 C39.7697161,4.21766562 40.3659306,4.28391167 40.9179811,4.41640379 C41.4700315,4.5488959 42,4.74763407 42.4416404,5.05678233 C42.9053628,5.34384858 43.2807571,5.74132492 43.5678233,6.20504732 C43.8769716,6.66876972 44.0536278,7.24290221 44.1419558,7.90536278 L41.3817035,7.90536278 C41.2492114,7.26498423 40.9621451,6.84542587 40.5205047,6.62460568 C40.0567823,6.40378549 39.5488959,6.29337539 38.9526814,6.29337539 C38.7760252,6.29337539 38.533123,6.31545741 38.2902208,6.33753943 C38.0252366,6.38170347 37.8044164,6.42586751 37.5615142,6.51419558 C37.340694,6.60252366 37.1419558,6.73501577 36.9873817,6.88958991 C36.8328076,7.04416404 36.7444795,7.26498423 36.7444795,7.52996845 C36.7444795,7.86119874 36.8548896,8.10410095 37.0757098,8.30283912 C37.29653,8.50157729 37.5835962,8.65615142 37.9589905,8.81072555 C38.3123028,8.94321767 38.7318612,9.05362776 39.1955836,9.14195584 C39.659306,9.23028391 40.1451104,9.34069401 40.6309148,9.4511041 C41.1167192,9.5615142 41.5804416,9.69400631 42.044164,9.84858044 C42.5078864,10.0031546 42.9274448,10.2018927 43.2807571,10.488959 C43.6340694,10.7539432 43.9432177,11.0851735 44.1640379,11.4826498 C44.384858,11.8801262 44.4952681,12.3880126 44.4952681,12.9621451 C44.4952681,13.6687697 44.340694,14.2649842 44.0094637,14.7728707 C43.6782334,15.2586751 43.2586751,15.6782334 42.7507886,15.9873817 C42.2429022,16.29653 41.6466877,16.5173502 41.0283912,16.6719243 C40.3880126,16.8044164 39.7697161,16.8927445 39.1514196,16.8927445 C38.4006309,16.8927445 37.6940063,16.8044164 37.0536278,16.6277603 C36.4132492,16.4511041 35.8391167,16.1861199 35.3753943,15.8548896 C34.9116719,15.5015773 34.5362776,15.0820189 34.2712934,14.5520505 C34.0063091,14.044164 33.851735,13.4258675 33.829653,12.6971609 L36.5015773,12.6971609 L36.5015773,12.7192429 L36.5236593,12.7192429 C36.6119874,13.4921136 36.8990536,14.022082 37.4069401,14.3533123 C37.9148265,14.6624606 38.533123,14.8170347 39.2397476,14.8170347 C39.4826498,14.8170347 39.7697161,14.7949527 40.0788644,14.7507886 C40.3880126,14.7066246 40.6971609,14.6403785 40.9621451,14.5299685 C41.2492114,14.4195584 41.4700315,14.2649842 41.6466877,14.044164 C41.8233438,13.8233438 41.9116719,13.5583596 41.8895899,13.2271293 C41.8675079,12.8958991 41.7570978,12.6088328 41.5141956,12.3880126 C41.2712934,12.1671924 40.9842271,12.0126183 40.6309148,11.8580442 C40.2776025,11.7255521 39.8580442,11.615142 39.3943218,11.5268139 C38.9305994,11.4384858 38.466877,11.3280757 37.9810726,11.2176656 C37.4952681,11.1072555 37.0094637,10.9747634 36.5457413,10.8201893 C36.0820189,10.6656151 35.6845426,10.466877 35.3091483,10.1798107 C34.955836,9.9148265 34.6466877,9.58359621 34.4479495,9.16403785 C34.2271293,8.7444795 34.1167192,8.25867508 34.1167192,7.64037855 C34.1167192,6.97791798 34.2712934,6.44794953 34.6025237,6.00630915 C34.9116719,5.56466877 35.3312303,5.21135647 35.8170347,4.94637224 C36.3028391,4.68138801 36.8548896,4.48264984 37.4511041,4.37223975 C38.0473186,4.26182965 38.6214511,4.21766562 39.1514196,4.21766562 Z M83.8012618,4.23974763 C84.7507886,4.23974763 85.6119874,4.39432177 86.362776,4.72555205 C87.1135647,5.03470032 87.7318612,5.47634069 88.2618297,6.02839117 C88.7697161,6.58044164 89.1671924,7.26498423 89.4321767,8.03785489 C89.6971609,8.81072555 89.851735,9.64984227 89.851735,10.555205 C89.851735,11.4826498 89.7192429,12.3217666 89.4321767,13.0946372 C89.1451104,13.8675079 88.7697161,14.5299685 88.2618297,15.1041009 C87.7539432,15.6561514 87.1135647,16.0977918 86.362776,16.4069401 C85.6119874,16.7160883 84.7728707,16.8927445 83.8012618,16.8927445 C82.851735,16.8927445 81.9905363,16.7381703 81.2397476,16.4069401 C80.488959,16.0757098 79.8706625,15.6561514 79.340694,15.1041009 C78.8328076,14.5520505 78.4353312,13.8675079 78.170347,13.0946372 C77.9053628,12.3217666 77.7507886,11.4605678 77.7507886,10.555205 C77.7507886,9.64984227 77.8832808,8.81072555 78.170347,8.03785489 C78.4353312,7.26498423 78.8328076,6.60252366 79.340694,6.02839117 C79.8485804,5.47634069 80.488959,5.03470032 81.2397476,4.72555205 C81.9905363,4.41640379 82.851735,4.23974763 83.8012618,4.23974763 Z M49.9053628,0.949526814 L49.9053628,4.5488959 L52.2902208,4.5488959 L52.2902208,6.51419558 L49.9053628,6.51419558 L49.9053628,12.9179811 C49.9053628,13.2050473 49.9274448,13.4258675 49.9495268,13.6466877 C49.9716088,13.8454259 50.0378549,14.022082 50.1041009,14.1545741 C50.192429,14.2870662 50.3249211,14.3974763 50.4794953,14.4637224 C50.6561514,14.5299685 50.8769716,14.5741325 51.1861199,14.5741325 C51.362776,14.5741325 51.5615142,14.5741325 51.7381703,14.5520505 C51.9148265,14.5299685 52.1135647,14.5078864 52.2902208,14.4637224 L52.2902208,16.5173502 C52.0031546,16.5615142 51.7160883,16.5835962 51.4290221,16.6056782 C51.1419558,16.6498423 50.8769716,16.6498423 50.5678233,16.6498423 C49.8611987,16.6498423 49.3091483,16.5835962 48.8895899,16.4511041 C48.4700315,16.318612 48.1388013,16.1198738 47.8958991,15.8769716 C47.6529968,15.6119874 47.4984227,15.3028391 47.4100946,14.9274448 C47.3217666,14.5520505 47.2776025,14.0883281 47.2555205,13.6025237 L47.2555205,6.5362776 L45.2460568,6.5362776 L45.2460568,4.57097792 L47.2555205,4.57097792 L47.2555205,0.949526814 L49.9053628,0.949526814 Z M95.3059937,0.949526814 L95.3059937,4.5488959 L97.6908517,4.5488959 L97.6908517,6.51419558 L95.3059937,6.51419558 L95.3059937,12.9179811 C95.3059937,13.2050473 95.3280757,13.4258675 95.3501577,13.6466877 C95.3722397,13.8454259 95.4384858,14.022082 95.5047319,14.1545741 C95.5930599,14.2870662 95.7255521,14.3974763 95.8801262,14.4637224 C96.0567823,14.5299685 96.2776025,14.5741325 96.5867508,14.5741325 C96.7634069,14.5741325 96.9621451,14.5741325 97.1388013,14.5520505 C97.3154574,14.5299685 97.5141956,14.5078864 97.6908517,14.4637224 L97.6908517,16.5173502 C97.4037855,16.5615142 97.1167192,16.5835962 96.829653,16.6056782 C96.5425868,16.6498423 96.2776025,16.6498423 95.9684543,16.6498423 C95.2618297,16.6498423 94.7097792,16.5835962 94.2902208,16.4511041 C93.8706625,16.318612 93.5394322,16.1198738 93.29653,15.8769716 C93.0536278,15.6119874 92.8990536,15.3028391 92.8107256,14.9274448 C92.7223975,14.5520505 92.6782334,14.0883281 92.6561514,13.6025237 L92.6561514,6.5362776 L90.6466877,6.5362776 L90.6466877,4.57097792 L92.6561514,4.57097792 L92.6561514,0.949526814 L95.3059937,0.949526814 Z M13.4258675,0 L13.4258675,2.49526814 L8.14826498,2.49526814 L8.14826498,16.5615142 L5.2555205,16.5615142 L5.2555205,2.49526814 L-6.21724894e-15,2.49526814 L0.0220820189,0 L13.4258675,0 Z M70.7066246,4.57097792 L70.7066246,16.5615142 L68.0567823,16.5615142 L68.0567823,4.57097792 L70.7066246,4.57097792 Z M75.7192429,1.24344979e-14 L75.7192429,16.5615142 L73.0694006,16.5615142 L73.0694006,1.24344979e-14 L75.7192429,1.24344979e-14 Z M18.8801262,4.23974763 C19.1892744,4.23974763 19.4100946,4.26182965 19.5205047,4.26182965 C19.6309148,4.28391167 19.7634069,4.30599369 19.873817,4.30599369 L19.873817,6.84542587 C19.6971609,6.80126183 19.4984227,6.77917981 19.2996845,6.75709779 C19.1009464,6.73501577 18.9242902,6.71293375 18.7255521,6.71293375 C18.2839117,6.71293375 17.8643533,6.80126183 17.466877,6.97791798 C17.0694006,7.15457413 16.7381703,7.41955836 16.4290221,7.75078864 C16.1419558,8.10410095 15.8990536,8.52365931 15.7223975,9.03154574 C15.5457413,9.53943218 15.4574132,10.1356467 15.4574132,10.7981073 L15.4574132,16.4952681 L12.807571,16.4952681 L12.851735,4.57097792 L15.3249211,4.57097792 L15.3249211,6.88958991 L15.3690852,6.88958991 C15.4574132,6.55835962 15.6119874,6.24921136 15.8328076,5.94006309 C16.0094637,5.69274448 16.2143849,5.45955836 16.458877,5.25181073 L16.6498423,5.10094637 C16.9589905,4.83596215 17.3123028,4.63722397 17.7097792,4.48264984 C18.0851735,4.32807571 18.4826498,4.23974763 18.8801262,4.23974763 Z M60.0630915,6.35962145 C58.9589905,6.35962145 58.1198738,6.73501577 57.5457413,7.50788644 C56.9936909,8.2807571 56.7066246,9.31861199 56.7066246,10.5993691 C56.7066246,11.2176656 56.7728707,11.7697161 56.9274448,12.2776025 C57.0820189,12.785489 57.2807571,13.2271293 57.5899054,13.6025237 C57.8769716,13.977918 58.2302839,14.2649842 58.6498423,14.4858044 C59.0694006,14.7066246 59.533123,14.8170347 60.0851735,14.8170347 C60.70347,14.8170347 61.1892744,14.6845426 61.6088328,14.4416404 C62.0283912,14.1987382 62.3596215,13.8675079 62.6466877,13.4921136 C62.9116719,13.0946372 63.1104101,12.6529968 63.2208202,12.1451104 C63.3312303,11.615142 63.3974763,11.1072555 63.3974763,10.5772871 C63.3974763,10.0473186 63.3312303,9.51735016 63.1766562,9.00946372 C63.044164,8.50157729 62.8233438,8.05993691 62.5362776,7.66246057 C62.2492114,7.26498423 61.8958991,6.95583596 61.4984227,6.71293375 C61.0788644,6.47003155 60.5930599,6.35962145 60.0630915,6.35962145 Z M83.8012618,6.35962145 C83.2271293,6.35962145 82.6971609,6.49211356 82.2776025,6.73501577 C81.8359621,6.97791798 81.5047319,7.30914826 81.2176656,7.68454259 C80.9305994,8.08201893 80.7318612,8.52365931 80.5993691,9.03154574 C80.466877,9.53943218 80.4006309,10.0473186 80.4006309,10.555205 C80.4006309,11.0851735 80.466877,11.5930599 80.5993691,12.1009464 C80.7318612,12.6088328 80.9305994,13.0504732 81.2176656,13.4479495 C81.5047319,13.8454259 81.8580442,14.1766562 82.2776025,14.4195584 C82.7192429,14.6845426 83.2271293,14.7949527 83.8012618,14.7949527 C84.3753943,14.7949527 84.9053628,14.6624606 85.3249211,14.4195584 C85.7665615,14.1766562 86.0977918,13.8454259 86.384858,13.4479495 C86.6719243,13.0504732 86.8706625,12.5867508 87.0031546,12.1009464 C87.1356467,11.5930599 87.2018927,11.0851735 87.2018927,10.555205 C87.2018927,10.0473186 87.1356467,9.53943218 87.0031546,9.03154574 C86.8706625,8.52365931 86.6719243,8.08201893 86.384858,7.68454259 C86.0977918,7.28706625 85.7444795,6.97791798 85.3249211,6.73501577 C84.8832808,6.49211356 84.3753943,6.35962145 83.8012618,6.35962145 Z M70.7066246,1.19904087e-14 L70.7066246,2.49526814 L68.0567823,2.49526814 L68.0567823,1.19904087e-14 L70.7066246,1.19904087e-14 Z"></path></clipPath></defs><g transform="translate(-773.0 -2763.0)"><g clip-path="url(#i0)"><g transform="translate(568.0 2756.0)"><g transform="translate(205.5 7.0)"><g clip-path="url(#i1)"><polygon points="-6.21724894e-15,0 97.6908517,0 97.6908517,21 -6.21724894e-15,21 -6.21724894e-15,0" stroke="none" fill="#676767"></polygon></g></g></g></g></g></svg>