<?xml version="1.0" encoding="UTF-8"?><svg version="1.1" width="2811px" height="128px" viewBox="0 0 2811.0 128.0" xmlns="http://www.w3.org/2000/svg" xmlns:xlink="http://www.w3.org/1999/xlink"><defs><clipPath id="i0"><path d="M2811,0 L2811,128 L0,128 L0,0 L2811,0 Z"></path></clipPath><clipPath id="i1"><path d="M914.120102,56.7262738 C1229.73823,56.7262738 1479.67144,-2.37283604 1840.47843,0.0739300475 C2201.28542,2.52069614 2256.9975,68.1238568 2576.83968,68.1238568 C2703.44142,68.1238568 2804.49487,62.1238568 2880,50.1238568 L2880,163.974301 L0,163.974301 L0,88.1238568 C90.809948,41.2993939 192.809948,17.8871625 306,17.8871625 C475.785078,17.8871625 598.501978,56.7262738 914.120102,56.7262738 Z"></path></clipPath></defs><g clip-path="url(#i0)"><g transform="translate(-69.0 118.12385680532856) scale(1.0 -1.0)"><g clip-path="url(#i1)"><polygon points="69,-2.77555756e-17 2880,-2.77555756e-17 2880,118.123857 69,118.123857 69,-2.77555756e-17" stroke="none" fill="#F3F3F3"></polygon></g></g></g></svg>