<?xml version="1.0" encoding="UTF-8"?><svg version="1.1" width="2811px" height="128px" viewBox="0 0 2811.0 128.0" xmlns="http://www.w3.org/2000/svg" xmlns:xlink="http://www.w3.org/1999/xlink"><defs><clipPath id="i0"><path d="M2811,0 L2811,128 L0,128 L0,0 L2811,0 Z"></path></clipPath><clipPath id="i1"><path d="M2880,0 L2880,106.149556 C2804.49487,118.149556 2703.44142,124.149556 2576.83968,124.149556 C2256.9975,124.149556 2201.28542,58.5463952 1840.47843,56.0996291 C1479.67144,53.652863 1229.73823,112.751973 914.120102,112.751973 C598.501978,112.751973 475.785078,73.9128615 306,73.9128615 C192.809948,73.9128615 90.809948,97.3250929 0,144.149556 L0,0 L2880,0 Z"></path></clipPath></defs><g clip-path="url(#i0)"><g transform="translate(-69.0 128.14955582157256) scale(1.0 -1.0)"><g clip-path="url(#i1)"><polygon points="69,0.149555822 2880,0.149555822 2880,128.149556 69,128.149556 69,0.149555822" stroke="none" fill="#EAEAEA"></polygon></g></g></g></svg>